HIERARCHY
ROOT root
{
	OFFSET	0	13.1	24.9
	CHANNELS 6  Xposition Yposition Zposition Xrotation Yrotation Zrotation
	JOINT spine_1
	{
		OFFSET	0	9.99999	0
		CHANNELS 3  Xrotation Yrotation Zrotation
		JOINT spine_2
		{
			OFFSET	0	112	-10
			CHANNELS 3  Xrotation Yrotation Zrotation
			JOINT spine_3
			{
				OFFSET	0	206.5	19.3
				CHANNELS 3  Xrotation Yrotation Zrotation
				JOINT spine_4
				{
					OFFSET	0	110.4	14.6
					CHANNELS 3  Xrotation Yrotation Zrotation
					JOINT neck_1
					{
						OFFSET	0	71.8	-50.3
						CHANNELS 3  Xrotation Yrotation Zrotation
						JOINT neck_2
						{
							OFFSET	0	86.2	-25.8
							CHANNELS 3  Xrotation Yrotation Zrotation
							JOINT head_ee
							{
								OFFSET	0	179.8	-8.7
								CHANNELS 3  Xrotation Yrotation Zrotation
								End Site
								{
									OFFSET	1	0	0
								}
							}
						}
					}
					JOINT left_clavicle
					{
						OFFSET	-43.2	22.4	-70.8
						CHANNELS 3  Xrotation Yrotation Zrotation
						JOINT left_shoulder
						{
							OFFSET	-93.9	-5.79999	48.7
							CHANNELS 3  Xrotation Yrotation Zrotation
							JOINT left_elbow
							{
								OFFSET	-291.4	-30.8	15.2
								CHANNELS 3  Xrotation Yrotation Zrotation
								JOINT left_lowarm_twist
								{
									OFFSET	-110.7	-3.89999	13.6
									CHANNELS 3  Xrotation Yrotation Zrotation
									JOINT left_hand
									{
										OFFSET	-110.7	-3.89999	13.6
										CHANNELS 3  Xrotation Yrotation Zrotation
										JOINT left_ee
										{
											OFFSET	-80.8	-5.10001	12.1
											CHANNELS 3  Xrotation Yrotation Zrotation
											End Site
											{
												OFFSET	1	0	0
											}
										}
									}
								}
							}
						}
					}
					JOINT right_clavicle
					{
						OFFSET	43.2	22.4	-70.8
						CHANNELS 3  Xrotation Yrotation Zrotation
						JOINT right_shoulder
						{
							OFFSET	93.9	-5.79999	48.7
							CHANNELS 3  Xrotation Yrotation Zrotation
							JOINT right_elbow
							{
								OFFSET	291.4	-30.8	15.2
								CHANNELS 3  Xrotation Yrotation Zrotation
								JOINT right_lowarm_twist
								{
									OFFSET	110.7	-3.89999	13.6
									CHANNELS 3  Xrotation Yrotation Zrotation
									JOINT right_hand
									{
										OFFSET	110.7	-3.89999	13.6
										CHANNELS 3  Xrotation Yrotation Zrotation
										JOINT right_ee
										{
											OFFSET	80.8	-5.10001	12.1
											CHANNELS 3  Xrotation Yrotation Zrotation
											End Site
											{
												OFFSET	1	0	0
											}
										}
									}
								}
							}
						}
					}
				}
			}
		}
	}
	JOINT left_hip
	{
		OFFSET	-82.8	-127.5	0.300001
		CHANNELS 3  Xrotation Yrotation Zrotation
		JOINT left_knee
		{
			OFFSET	-28.2	-396.7	2.2
			CHANNELS 3  Xrotation Yrotation Zrotation
			JOINT left_ankle
			{
				OFFSET	-11.7	-411.3	35.4
				CHANNELS 3  Xrotation Yrotation Zrotation
				JOINT left_toes
				{
					OFFSET	0	-60	-88.6
					CHANNELS 3  Xrotation Yrotation Zrotation
					JOINT left_foot_ee
					{
						OFFSET	-22.5	-16.5	-42.2
						CHANNELS 3  Xrotation Yrotation Zrotation
						End Site
						{
							OFFSET	1	0	0
						}
					}
				}
			}
		}
	}
	JOINT right_hip
	{
		OFFSET	82.8	-127.5	0.300001
		CHANNELS 3  Xrotation Yrotation Zrotation
		JOINT right_knee
		{
			OFFSET	28.2	-396.7	2.2
			CHANNELS 3  Xrotation Yrotation Zrotation
			JOINT right_ankle
			{
				OFFSET	11.7	-411.3	35.4
				CHANNELS 3  Xrotation Yrotation Zrotation
				JOINT right_toes
				{
					OFFSET	0	-60	-88.6
					CHANNELS 3  Xrotation Yrotation Zrotation
					JOINT right_foot_ee
					{
						OFFSET	22.5	-16.5	-42.2
						CHANNELS 3  Xrotation Yrotation Zrotation
						End Site
						{
							OFFSET	1	0	0
						}
					}
				}
			}
		}
	}
}
MOTION
Frames: 11
Frame Time: 0.02
1962.48 725.982 -516.294 63.9102 -87.2222 65.5463 -0.770401 -0.620434 -0.797733 -0.770226 -0.568416 -0.835594 -0.761523 -0.367678 -0.941338 -0.762394 -0.511725 -0.871464 -10.1003 0.678948 5.11276 -10.0268 -2.17335 5.15298 -0.0 0.0 -0.0 0.341404 5.86542 1.31649 7.94955 -22.3887 68.6052 4.15796 -64.0843 2.60313 -42.2521 -3.1938 4.21767 0.756549 17.357 11.7332 -0.0 0.0 -0.0 3.02782 -0.311157 -5.85577 -14.8289 6.54605 -70.7042 0.233866 6.60844 -0.013502 40.6566 0.383853 5.07198 0.590463 15.7494 2.73626 0.0 0.0 0.0 -1.69588 -0.872246 -2.59086 -10.0759 0.281932 1.51865 37.3267 24.7395 -4.89583 -13.3209 0.0 0.0 -0.0 0.0 -0.0 -4.35795 1.28507 -4.58092 -4.04667 -0.145333 -0.603907 39.8615 -25.3434 5.16587 -33.4464 0.0 0.0 0.0 0.0 0.0 
1967.33 724.215 -516.187 54.2928 -86.3222 55.0944 -0.958653 -0.651089 -0.922719 -0.958373 -0.591057 -0.962276 -0.947876 -0.358014 -1.07104 -0.949096 -0.522664 -1.00107 -10.7331 1.08451 4.59506 -10.6735 -1.00844 4.7383 -0.0 0.0 -0.0 0.749153 6.02715 2.07257 6.59634 -21.126 68.9501 4.50086 -65.8217 2.91382 -41.1014 -3.06906 4.13864 1.10954 17.1791 13.8837 -0.0 0.0 -0.0 2.97634 0.78758 -5.68226 -14.9849 6.81294 -70.6673 0.222261 6.28321 -0.0121991 40.3788 0.36911 5.03965 0.712078 17.4177 2.64516 0.0 0.0 0.0 0.41242 -2.04176 -1.99459 -16.8507 0.319839 2.55682 38.5758 23.9439 -4.99685 -12.8156 0.0 0.0 -0.0 0.0 -0.0 -5.71514 1.25956 -3.73101 -3.21702 -0.119023 -0.4793 39.6754 -25.2149 5.14362 -32.7184 0.0 0.0 0.0 0.0 0.0 
1975.08 723.736 -515.598 55.7249 -85.0376 56.2265 -1.32983 -0.778216 -0.875239 -1.32969 -0.720947 -0.922982 -1.31749 -0.486586 -1.06531 -1.31849 -0.648717 -0.975102 -10.3579 1.18721 3.91115 -10.3146 -0.386047 4.10467 -0.0 0.0 -0.0 1.33018 6.08879 3.12989 4.40937 -20.8254 67.8005 4.85138 -67.3837 3.23555 -41.3242 -3.09309 4.15414 1.43913 18.1038 16.2734 -0.0 0.0 -0.0 3.17485 2.72373 -5.93842 -15.0245 7.46566 -70.5161 0.199475 5.64344 -0.00983173 39.4957 0.323292 4.93642 0.799592 18.2323 2.41619 0.0 0.0 0.0 3.85903 -5.17451 -1.4634 -27.9771 0.116215 4.24939 36.9338 24.2403 -4.8413 -12.1276 0.0 0.0 -0.0 0.0 -0.0 -9.50489 -1.1706 -3.51899 2.30967 0.101979 0.339714 37.8191 -25.224 4.9604 -33.7719 0.0 0.0 0.0 0.0 0.0 
1976.53 723.964 -514.474 45.6889 -84.6237 45.7718 -1.28022 -0.624076 -0.919646 -1.27992 -0.564295 -0.95749 -1.26988 -0.327059 -1.06218 -1.27112 -0.490698 -0.997209 -11.969 1.05138 3.76762 -11.929 -0.436138 3.9165 -0.0 0.0 -0.0 1.75539 7.11213 3.98222 3.6254 -20.4301 68.5809 5.00449 -68.0073 3.3772 -41.1497 -3.07426 4.14201 1.51768 19.1488 17.1022 -0.0 0.0 -0.0 3.69879 3.80368 -6.90818 -14.2924 7.79245 -69.4106 0.213418 6.0351 -0.0112504 39.5683 0.326998 4.94493 0.959613 18.8481 1.62135 0.0 0.0 0.0 5.74698 -4.76526 -1.18134 -30.5286 0.0234549 4.62995 35.8444 24.3981 -4.73367 -12.125 0.0 0.0 -0.0 0.0 -0.0 -9.84204 -1.08908 -3.29151 3.25249 0.147538 0.477185 37.905 -25.0016 4.96214 -33.7565 0.0 0.0 0.0 0.0 0.0 
1979.46 724.145 -513.694 61.1092 -84.8309 61.0722 -1.34995 -0.315532 -0.962068 -1.34947 -0.253677 -0.980194 -1.34458 -0.0182635 -1.01232 -1.34597 -0.177903 -0.996735 -13.4054 1.04068 3.6222 -13.3684 -0.267921 3.76721 -0.0 0.0 -0.0 2.28243 7.86626 4.97712 2.7604 -19.5229 67.9511 4.79251 -67.135 3.18126 -40.1392 -2.96598 4.07064 1.74638 19.9993 18.8096 -0.0 0.0 -0.0 4.11487 7.30127 -7.52643 -13.2948 8.19576 -69.6478 0.198269 5.60955 -0.00971355 39.8992 0.344031 4.98368 0.879096 19.3628 2.38204 0.0 0.0 0.0 6.49954 -5.00719 -1.44762 -33.5543 -0.108401 5.07546 34.3537 24.4431 -4.57761 -12.2936 0.0 0.0 -0.0 0.0 -0.0 -10.4137 -3.21564 -3.07861 3.48394 0.159068 0.510818 38.1782 -23.4292 4.94291 -33.255 0.0 0.0 0.0 0.0 0.0 
1985.1 724.788 -512.178 69.1692 -84.5349 69.0381 -1.36393 -0.0173611 -0.957848 -1.36342 0.0436216 -0.957012 -1.36378 0.265794 -0.920399 -1.36494 0.117106 -0.950821 -15.1784 0.975789 3.13334 -15.1506 0.0142396 3.28274 -0.0 0.0 -0.0 2.95258 8.01761 6.17564 0.967404 -19.5233 67.5016 4.23994 -64.5206 2.677 -40.3463 -2.98806 4.08542 2.04689 21.2106 21.0698 -0.0 0.0 -0.0 4.94567 8.59128 -9.15804 -13.2885 9.03753 -68.4353 0.215371 6.0899 -0.0114565 39.5584 0.326492 4.94377 1.04585 21.0875 2.03893 0.0 0.0 0.0 7.50868 -3.68592 -1.6261 -37.2855 -0.303167 5.61451 33.3037 24.1007 -4.45536 -12.3292 0.0 0.0 -0.0 0.0 -0.0 -11.1796 -3.15748 -2.98733 2.7695 0.123916 0.406852 39.5237 -21.8021 5.02864 -32.7127 0.0 0.0 0.0 0.0 0.0 
1994.06 722.361 -509.645 65.9968 -84.0204 65.4472 -1.43964 0.0211287 -0.863017 -1.43922 0.0759999 -0.859924 -1.44008 0.275706 -0.818069 -1.44099 0.143052 -0.851342 -15.2754 0.804549 2.09484 -15.2631 0.304591 2.24589 -0.0 0.0 -0.0 3.67504 8.12771 7.46437 -1.18776 -18.6176 66.3372 3.26904 -58.2907 1.82326 -39.7632 -2.92601 4.0436 2.23857 21.2188 22.3021 -0.0 0.0 -0.0 5.05828 9.22841 -9.35447 -12.5642 9.99401 -67.9821 0.259077 7.31348 -0.0165574 39.1028 0.303422 4.89027 1.11544 21.6932 1.84968 0.0 0.0 0.0 8.81042 -2.11561 -1.78773 -40.3324 -0.488051 6.04475 33.1151 23.8699 -4.42899 -12.5531 0.0 0.0 -0.0 0.0 -0.0 -12.0823 -1.75902 -2.37677 2.1799 0.0958865 0.320736 40.811 -20.1309 5.10596 -32.7675 0.0 0.0 0.0 0.0 0.0 
2000.98 722.507 -506.753 54.3198 -83.2141 53.0684 -1.42573 0.0598825 -0.647433 -1.4255 0.100958 -0.642311 -1.4265 0.248745 -0.600736 -1.42697 0.15075 -0.63248 -15.1227 0.376861 2.24404 -15.1089 -0.60793 2.24408 -0.0 0.0 -0.0 3.45701 7.54776 7.05195 -2.39976 -18.74 66.9082 3.10253 -56.9375 1.68263 -40.1985 -2.9723 4.07488 2.20964 21.0671 22.0747 -0.0 0.0 -0.0 5.31687 10.0046 -9.84832 -10.8292 10.2106 -67.8871 0.322473 9.07616 -0.0255949 39.1547 0.30603 4.89638 1.20507 22.2042 1.48905 0.0 0.0 0.0 9.96301 -1.98809 -1.36846 -41.6517 -0.575175 6.22793 33.1512 23.8281 -4.43188 -12.32 0.0 0.0 -0.0 0.0 -0.0 -12.588 -2.78907 -1.93751 1.66966 0.0723474 0.245986 40.6827 -19.9084 5.08899 -33.2193 0.0 0.0 0.0 0.0 0.0 
2009.12 720.772 -501.701 57.3341 -83.2327 55.7916 -1.42637 0.235345 -0.615282 -1.4262 0.27402 -0.599061 -1.42905 0.40687 -0.518092 -1.42928 0.319942 -0.575846 -14.8461 0.699997 1.94294 -14.8355 0.1786 2.06632 -0.0 0.0 -0.0 3.61773 8.50652 7.37693 -4.31293 -18.6218 66.6922 2.62577 -52.4379 1.29329 -40.0898 -2.96071 4.0671 2.6942 22.3645 25.5599 -0.0 0.0 -0.0 5.57459 10.8431 -10.3399 -9.15631 12.6323 -67.1756 0.396144 11.1027 -0.038503 39.1016 0.303359 4.89013 1.44747 23.5176 0.496738 0.0 0.0 0.0 11.162 -4.28436 -0.543929 -44.144 -0.751232 6.56842 30.4539 22.453 -4.10156 -12.3695 0.0 0.0 -0.0 0.0 -0.0 -13.2674 -2.90243 -1.73578 1.31791 0.0565093 0.194338 41.7822 -18.2201 5.14918 -32.7141 0.0 0.0 0.0 0.0 0.0 
2016.59 724.8 -500.185 46.7784 -82.1971 44.6517 -1.51128 0.082905 -0.323101 -1.51122 0.103297 -0.317171 -1.51178 0.175203 -0.283851 -1.51187 0.128175 -0.307959 -14.828 0.666606 2.19149 -14.8144 -0.0343306 2.29035 -0.0 0.0 -0.0 3.87088 7.0315 7.77512 -6.28534 -18.7854 66.6435 2.04975 -45.432 0.858175 -39.8489 -2.93511 4.04979 2.96555 23.1468 27.5365 -0.0 0.0 -0.0 5.91594 11.4903 -11.0223 -7.12428 13.1832 -66.7704 0.454991 12.7018 -0.0506409 39.3308 0.314914 4.91707 1.38451 22.4148 0.407295 0.0 0.0 0.0 13.1829 -0.586916 -1.23203 -44.5143 -0.77865 6.61835 30.2772 20.4593 -4.04305 -12.489 0.0 0.0 -0.0 0.0 -0.0 -14.1241 -2.69374 -1.43216 1.25405 0.053668 0.18495 42.1698 -17.7737 5.17353 -32.9576 0.0 0.0 0.0 0.0 0.0 
2022.37 724.647 -498.725 41.6675 -80.8897 39.3985 -1.61795 -0.0539445 -0.260694 -1.61791 -0.0372466 -0.263598 -1.6177 0.0264763 -0.264897 -1.6178 -0.0156914 -0.265754 -14.5272 0.573271 2.33702 -14.5119 -0.312353 2.39791 -0.0 0.0 -0.0 3.71525 6.87893 7.48849 -8.15061 -18.9706 66.6296 1.77697 -41.3524 0.670666 -39.5544 -2.9039 4.02847 3.25101 23.5107 29.5367 -0.0 0.0 -0.0 5.83597 12.2942 -10.8059 -5.25902 14.0254 -66.3702 0.548084 15.1901 -0.0730822 39.7087 0.334196 4.96138 1.54317 22.7822 -0.464187 0.0 0.0 0.0 15.9903 -0.225649 -1.01715 -46.4714 -0.928927 6.87931 30.1976 18.5167 -4.00197 -12.7685 0.0 0.0 -0.0 0.0 -0.0 -15.2666 -2.33993 -1.73428 1.2042 0.0514573 0.17762 41.7049 -16.8699 5.1152 -33.294 0.0 0.0 0.0 0.0 0.0 
